<svg xmlns="http://www.w3.org/2000/svg" height="20" width="20"><path d="M2.667 15.104v-1h7.604v1Zm0-3.604v-1h3.645v1Zm0-3.604v-1h3.645v1Zm13.979 7.208L13.5 11.979q-.438.333-.958.511-.521.177-1.104.177-1.459 0-2.469-1.011-1.011-1.01-1.011-2.468 0-1.438 1.011-2.448 1.01-1.011 2.469-1.011 1.437 0 2.447 1.011 1.011 1.01 1.011 2.448 0 .604-.177 1.124-.177.521-.49.959l3.125 3.125Zm-5.229-3.437q1.041 0 1.76-.719.719-.719.719-1.76 0-1.021-.719-1.74-.719-.719-1.739-.719-1.042 0-1.761.719-.719.719-.719 1.74 0 1.041.719 1.76.719.719 1.74.719Z"/></svg>