<svg  width="28" height="17" viewBox="0 0 28 17" fill="none" xmlns="http://www.w3.org/2000/svg">
<path fill-rule="evenodd" clip-rule="evenodd" d="M0.875 8.50021C0.875 8.25157 0.973772 8.01311 1.14959 7.8373C1.3254 7.66148 1.56386 7.56271 1.8125 7.56271H23.9244L18.0238 1.66396C17.8477 1.48792 17.7488 1.24916 17.7488 1.00021C17.7488 0.751253 17.8477 0.512495 18.0238 0.336457C18.1998 0.16042 18.4385 0.0615234 18.6875 0.0615234C18.9365 0.0615234 19.1752 0.16042 19.3512 0.336457L26.8512 7.83646C26.9386 7.92354 27.0078 8.027 27.0551 8.1409C27.1023 8.25479 27.1267 8.37689 27.1267 8.50021C27.1267 8.62352 27.1023 8.74562 27.0551 8.85952C27.0078 8.97342 26.9386 9.07687 26.8512 9.16396L19.3512 16.664C19.1752 16.84 18.9365 16.9389 18.6875 16.9389C18.4385 16.9389 18.1998 16.84 18.0238 16.664C17.8477 16.4879 17.7488 16.2492 17.7488 16.0002C17.7488 15.7513 17.8477 15.5125 18.0238 15.3365L23.9244 9.43771H1.8125C1.56386 9.43771 1.3254 9.33894 1.14959 9.16312C0.973772 8.98731 0.875 8.74885 0.875 8.50021Z" fill="#1E88E5"/>
</svg>
