<svg width="240" height="133" viewBox="0 0 240 133" fill="none" xmlns="http://www.w3.org/2000/svg">
<path d="M45.19 17L40.024 11.276V17H38.386V4.454H40.024V10.268L45.208 4.454H47.278L41.59 10.736L47.332 17H45.19ZM58.1614 11.69C58.1614 12.002 58.1434 12.332 58.1074 12.68H50.2234C50.2834 13.652 50.6134 14.414 51.2134 14.966C51.8254 15.506 52.5634 15.776 53.4274 15.776C54.1354 15.776 54.7234 15.614 55.1914 15.29C55.6714 14.954 56.0074 14.51 56.1994 13.958H57.9634C57.6994 14.906 57.1714 15.68 56.3794 16.28C55.5874 16.868 54.6034 17.162 53.4274 17.162C52.4914 17.162 51.6514 16.952 50.9074 16.532C50.1754 16.112 49.5994 15.518 49.1794 14.75C48.7594 13.97 48.5494 13.07 48.5494 12.05C48.5494 11.03 48.7534 10.136 49.1614 9.368C49.5694 8.6 50.1394 8.012 50.8714 7.604C51.6154 7.184 52.4674 6.974 53.4274 6.974C54.3634 6.974 55.1914 7.178 55.9114 7.586C56.6314 7.994 57.1834 8.558 57.5674 9.278C57.9634 9.986 58.1614 10.79 58.1614 11.69ZM56.4694 11.348C56.4694 10.724 56.3314 10.19 56.0554 9.746C55.7794 9.29 55.4014 8.948 54.9214 8.72C54.4534 8.48 53.9314 8.36 53.3554 8.36C52.5274 8.36 51.8194 8.624 51.2314 9.152C50.6554 9.68 50.3254 10.412 50.2414 11.348H56.4694ZM65.1295 6.956C66.3295 6.956 67.3015 7.322 68.0455 8.054C68.7895 8.774 69.1615 9.818 69.1615 11.186V17H67.5415V11.42C67.5415 10.436 67.2955 9.686 66.8035 9.17C66.3115 8.642 65.6395 8.378 64.7875 8.378C63.9235 8.378 63.2335 8.648 62.7175 9.188C62.2135 9.728 61.9615 10.514 61.9615 11.546V17H60.3235V7.136H61.9615V8.54C62.2855 8.036 62.7235 7.646 63.2755 7.37C63.8395 7.094 64.4575 6.956 65.1295 6.956ZM80.3332 7.136L74.3932 21.644H72.7012L74.6452 16.892L70.6672 7.136H72.4852L75.5812 15.128L78.6412 7.136H80.3332ZM81.3678 12.032C81.3678 11.024 81.5718 10.142 81.9798 9.386C82.3878 8.618 82.9458 8.024 83.6538 7.604C84.3738 7.184 85.1718 6.974 86.0478 6.974C86.9118 6.974 87.6618 7.16 88.2978 7.532C88.9338 7.904 89.4078 8.372 89.7198 8.936V7.136H91.3758V17H89.7198V15.164C89.3958 15.74 88.9098 16.22 88.2618 16.604C87.6258 16.976 86.8818 17.162 86.0298 17.162C85.1538 17.162 84.3618 16.946 83.6538 16.514C82.9458 16.082 82.3878 15.476 81.9798 14.696C81.5718 13.916 81.3678 13.028 81.3678 12.032ZM89.7198 12.05C89.7198 11.306 89.5698 10.658 89.2698 10.106C88.9698 9.554 88.5618 9.134 88.0458 8.846C87.5418 8.546 86.9838 8.396 86.3718 8.396C85.7598 8.396 85.2018 8.54 84.6978 8.828C84.1938 9.116 83.7918 9.536 83.4918 10.088C83.1918 10.64 83.0418 11.288 83.0418 12.032C83.0418 12.788 83.1918 13.448 83.4918 14.012C83.7918 14.564 84.1938 14.99 84.6978 15.29C85.2018 15.578 85.7598 15.722 86.3718 15.722C86.9838 15.722 87.5418 15.578 88.0458 15.29C88.5618 14.99 88.9698 14.564 89.2698 14.012C89.5698 13.448 89.7198 12.794 89.7198 12.05ZM47.746 65.114H43.912V69.002H42.382V65.114H38.566V63.728H42.382V59.822H43.912V63.728H47.746V65.114ZM50.2051 69.686C51.7291 68.462 52.9231 67.46 53.7871 66.68C54.6511 65.888 55.3771 65.066 55.9651 64.214C56.5651 63.35 56.8651 62.504 56.8651 61.676C56.8651 60.896 56.6731 60.284 56.2891 59.84C55.9171 59.384 55.3111 59.156 54.4711 59.156C53.6551 59.156 53.0191 59.414 52.5631 59.93C52.1191 60.434 51.8791 61.112 51.8431 61.964H50.2591C50.3071 60.62 50.7151 59.582 51.4831 58.85C52.2511 58.118 53.2411 57.752 54.4531 57.752C55.6891 57.752 56.6671 58.094 57.3871 58.778C58.1191 59.462 58.4851 60.404 58.4851 61.604C58.4851 62.6 58.1851 63.572 57.5851 64.52C56.9971 65.456 56.3251 66.284 55.5691 67.004C54.8131 67.712 53.8471 68.54 52.6711 69.488H58.8631V70.856H50.2051V69.686ZM69.0546 59.408H62.7366V63.512C63.0126 63.128 63.4206 62.816 63.9606 62.576C64.5006 62.324 65.0826 62.198 65.7066 62.198C66.7026 62.198 67.5126 62.408 68.1366 62.828C68.7606 63.236 69.2046 63.77 69.4686 64.43C69.7446 65.078 69.8826 65.768 69.8826 66.5C69.8826 67.364 69.7206 68.138 69.3966 68.822C69.0726 69.506 68.5746 70.046 67.9026 70.442C67.2426 70.838 66.4206 71.036 65.4366 71.036C64.1766 71.036 63.1566 70.712 62.3766 70.064C61.5966 69.416 61.1226 68.552 60.9546 67.472H62.5566C62.7126 68.156 63.0426 68.69 63.5466 69.074C64.0506 69.458 64.6866 69.65 65.4546 69.65C66.4026 69.65 67.1166 69.368 67.5966 68.804C68.0766 68.228 68.3166 67.472 68.3166 66.536C68.3166 65.6 68.0766 64.88 67.5966 64.376C67.1166 63.86 66.4086 63.602 65.4726 63.602C64.8366 63.602 64.2786 63.758 63.7986 64.07C63.3306 64.37 62.9886 64.784 62.7726 65.312H61.2246V57.968H69.0546V59.408ZM71.6634 68.102V66.86L77.9814 58.112H79.9434V66.68H81.7434V68.102H79.9434V71H78.3234V68.102H71.6634ZM78.3954 59.822L73.5534 66.68H78.3954V59.822ZM91.3897 59.264L86.3857 71H84.7297L89.8057 59.426H82.8577V58.022H91.3897V59.264ZM93.2058 64.358C93.2058 62.294 93.5418 60.686 94.2138 59.534C94.8858 58.37 96.0618 57.788 97.7418 57.788C99.4098 57.788 100.58 58.37 101.252 59.534C101.924 60.686 102.26 62.294 102.26 64.358C102.26 66.458 101.924 68.09 101.252 69.254C100.58 70.418 99.4098 71 97.7418 71C96.0618 71 94.8858 70.418 94.2138 69.254C93.5418 68.09 93.2058 66.458 93.2058 64.358ZM100.64 64.358C100.64 63.314 100.568 62.432 100.424 61.712C100.292 60.98 100.01 60.392 99.5778 59.948C99.1578 59.504 98.5458 59.282 97.7418 59.282C96.9258 59.282 96.3018 59.504 95.8698 59.948C95.4498 60.392 95.1678 60.98 95.0238 61.712C94.8918 62.432 94.8258 63.314 94.8258 64.358C94.8258 65.438 94.8918 66.344 95.0238 67.076C95.1678 67.808 95.4498 68.396 95.8698 68.84C96.3018 69.284 96.9258 69.506 97.7418 69.506C98.5458 69.506 99.1578 69.284 99.5778 68.84C100.01 68.396 100.292 67.808 100.424 67.076C100.568 66.344 100.64 65.438 100.64 64.358ZM104.509 64.358C104.509 62.294 104.845 60.686 105.517 59.534C106.189 58.37 107.365 57.788 109.045 57.788C110.713 57.788 111.883 58.37 112.555 59.534C113.227 60.686 113.563 62.294 113.563 64.358C113.563 66.458 113.227 68.09 112.555 69.254C111.883 70.418 110.713 71 109.045 71C107.365 71 106.189 70.418 105.517 69.254C104.845 68.09 104.509 66.458 104.509 64.358ZM111.943 64.358C111.943 63.314 111.871 62.432 111.727 61.712C111.595 60.98 111.313 60.392 110.881 59.948C110.461 59.504 109.849 59.282 109.045 59.282C108.229 59.282 107.605 59.504 107.173 59.948C106.753 60.392 106.471 60.98 106.327 61.712C106.195 62.432 106.129 63.314 106.129 64.358C106.129 65.438 106.195 66.344 106.327 67.076C106.471 67.808 106.753 68.396 107.173 68.84C107.605 69.284 108.229 69.506 109.045 69.506C109.849 69.506 110.461 69.284 110.881 68.84C111.313 68.396 111.595 67.808 111.727 67.076C111.871 66.344 111.943 65.438 111.943 64.358ZM115.811 64.358C115.811 62.294 116.147 60.686 116.819 59.534C117.491 58.37 118.667 57.788 120.347 57.788C122.015 57.788 123.185 58.37 123.857 59.534C124.529 60.686 124.865 62.294 124.865 64.358C124.865 66.458 124.529 68.09 123.857 69.254C123.185 70.418 122.015 71 120.347 71C118.667 71 117.491 70.418 116.819 69.254C116.147 68.09 115.811 66.458 115.811 64.358ZM123.245 64.358C123.245 63.314 123.173 62.432 123.029 61.712C122.897 60.98 122.615 60.392 122.183 59.948C121.763 59.504 121.151 59.282 120.347 59.282C119.531 59.282 118.907 59.504 118.475 59.948C118.055 60.392 117.773 60.98 117.629 61.712C117.497 62.432 117.431 63.314 117.431 64.358C117.431 65.438 117.497 66.344 117.629 67.076C117.773 67.808 118.055 68.396 118.475 68.84C118.907 69.284 119.531 69.506 120.347 69.506C121.151 69.506 121.763 69.284 122.183 68.84C122.615 68.396 122.897 67.808 123.029 67.076C123.173 66.344 123.245 65.438 123.245 64.358ZM127.114 64.358C127.114 62.294 127.45 60.686 128.122 59.534C128.794 58.37 129.97 57.788 131.65 57.788C133.318 57.788 134.488 58.37 135.16 59.534C135.832 60.686 136.168 62.294 136.168 64.358C136.168 66.458 135.832 68.09 135.16 69.254C134.488 70.418 133.318 71 131.65 71C129.97 71 128.794 70.418 128.122 69.254C127.45 68.09 127.114 66.458 127.114 64.358ZM134.548 64.358C134.548 63.314 134.476 62.432 134.332 61.712C134.2 60.98 133.918 60.392 133.486 59.948C133.066 59.504 132.454 59.282 131.65 59.282C130.834 59.282 130.21 59.504 129.778 59.948C129.358 60.392 129.076 60.98 128.932 61.712C128.8 62.432 128.734 63.314 128.734 64.358C128.734 65.438 128.8 66.344 128.932 67.076C129.076 67.808 129.358 68.396 129.778 68.84C130.21 69.284 130.834 69.506 131.65 69.506C132.454 69.506 133.066 69.284 133.486 68.84C133.918 68.396 134.2 67.808 134.332 67.076C134.476 66.344 134.548 65.438 134.548 64.358ZM138.417 64.358C138.417 62.294 138.753 60.686 139.425 59.534C140.097 58.37 141.273 57.788 142.953 57.788C144.621 57.788 145.791 58.37 146.463 59.534C147.135 60.686 147.471 62.294 147.471 64.358C147.471 66.458 147.135 68.09 146.463 69.254C145.791 70.418 144.621 71 142.953 71C141.273 71 140.097 70.418 139.425 69.254C138.753 68.09 138.417 66.458 138.417 64.358ZM145.851 64.358C145.851 63.314 145.779 62.432 145.635 61.712C145.503 60.98 145.221 60.392 144.789 59.948C144.369 59.504 143.757 59.282 142.953 59.282C142.137 59.282 141.513 59.504 141.081 59.948C140.661 60.392 140.379 60.98 140.235 61.712C140.103 62.432 140.037 63.314 140.037 64.358C140.037 65.438 140.103 66.344 140.235 67.076C140.379 67.808 140.661 68.396 141.081 68.84C141.513 69.284 142.137 69.506 142.953 69.506C143.757 69.506 144.369 69.284 144.789 68.84C145.221 68.396 145.503 67.808 145.635 67.076C145.779 66.344 145.851 65.438 145.851 64.358ZM149.72 64.358C149.72 62.294 150.056 60.686 150.728 59.534C151.4 58.37 152.576 57.788 154.256 57.788C155.924 57.788 157.094 58.37 157.766 59.534C158.438 60.686 158.774 62.294 158.774 64.358C158.774 66.458 158.438 68.09 157.766 69.254C157.094 70.418 155.924 71 154.256 71C152.576 71 151.4 70.418 150.728 69.254C150.056 68.09 149.72 66.458 149.72 64.358ZM157.154 64.358C157.154 63.314 157.082 62.432 156.938 61.712C156.806 60.98 156.524 60.392 156.092 59.948C155.672 59.504 155.06 59.282 154.256 59.282C153.44 59.282 152.816 59.504 152.384 59.948C151.964 60.392 151.682 60.98 151.538 61.712C151.406 62.432 151.34 63.314 151.34 64.358C151.34 65.438 151.406 66.344 151.538 67.076C151.682 67.808 151.964 68.396 152.384 68.84C152.816 69.284 153.44 69.506 154.256 69.506C155.06 69.506 155.672 69.284 156.092 68.84C156.524 68.396 156.806 67.808 156.938 67.076C157.082 66.344 157.154 65.438 157.154 64.358ZM161.022 64.358C161.022 62.294 161.358 60.686 162.03 59.534C162.702 58.37 163.878 57.788 165.558 57.788C167.226 57.788 168.396 58.37 169.068 59.534C169.74 60.686 170.076 62.294 170.076 64.358C170.076 66.458 169.74 68.09 169.068 69.254C168.396 70.418 167.226 71 165.558 71C163.878 71 162.702 70.418 162.03 69.254C161.358 68.09 161.022 66.458 161.022 64.358ZM168.456 64.358C168.456 63.314 168.384 62.432 168.24 61.712C168.108 60.98 167.826 60.392 167.394 59.948C166.974 59.504 166.362 59.282 165.558 59.282C164.742 59.282 164.118 59.504 163.686 59.948C163.266 60.392 162.984 60.98 162.84 61.712C162.708 62.432 162.642 63.314 162.642 64.358C162.642 65.438 162.708 66.344 162.84 67.076C162.984 67.808 163.266 68.396 163.686 68.84C164.118 69.284 164.742 69.506 165.558 69.506C166.362 69.506 166.974 69.284 167.394 68.84C167.826 68.396 168.108 67.808 168.24 67.076C168.384 66.344 168.456 65.438 168.456 64.358ZM40.024 116.972C40.36 116.384 40.852 115.904 41.5 115.532C42.148 115.16 42.886 114.974 43.714 114.974C44.602 114.974 45.4 115.184 46.108 115.604C46.816 116.024 47.374 116.618 47.782 117.386C48.19 118.142 48.394 119.024 48.394 120.032C48.394 121.028 48.19 121.916 47.782 122.696C47.374 123.476 46.81 124.082 46.09 124.514C45.382 124.946 44.59 125.162 43.714 125.162C42.862 125.162 42.112 124.976 41.464 124.604C40.828 124.232 40.348 123.758 40.024 123.182V125H38.386V111.68H40.024V116.972ZM46.72 120.032C46.72 119.288 46.57 118.64 46.27 118.088C45.97 117.536 45.562 117.116 45.046 116.828C44.542 116.54 43.984 116.396 43.372 116.396C42.772 116.396 42.214 116.546 41.698 116.846C41.194 117.134 40.786 117.56 40.474 118.124C40.174 118.676 40.024 119.318 40.024 120.05C40.024 120.794 40.174 121.448 40.474 122.012C40.786 122.564 41.194 122.99 41.698 123.29C42.214 123.578 42.772 123.722 43.372 123.722C43.984 123.722 44.542 123.578 45.046 123.29C45.562 122.99 45.97 122.564 46.27 122.012C46.57 121.448 46.72 120.788 46.72 120.032ZM52.1881 111.68V125H50.5501V111.68H52.1881ZM63.7278 115.136V125H62.0898V123.542C61.7778 124.046 61.3398 124.442 60.7758 124.73C60.2238 125.006 59.6118 125.144 58.9398 125.144C58.1718 125.144 57.4818 124.988 56.8698 124.676C56.2578 124.352 55.7718 123.872 55.4118 123.236C55.0638 122.6 54.8898 121.826 54.8898 120.914V115.136H56.5098V120.698C56.5098 121.67 56.7558 122.42 57.2478 122.948C57.7398 123.464 58.4118 123.722 59.2638 123.722C60.1398 123.722 60.8298 123.452 61.3338 122.912C61.8378 122.372 62.0898 121.586 62.0898 120.554V115.136H63.7278ZM75.4934 119.69C75.4934 120.002 75.4754 120.332 75.4394 120.68H67.5554C67.6154 121.652 67.9454 122.414 68.5454 122.966C69.1574 123.506 69.8954 123.776 70.7594 123.776C71.4674 123.776 72.0554 123.614 72.5234 123.29C73.0034 122.954 73.3394 122.51 73.5314 121.958H75.2954C75.0314 122.906 74.5034 123.68 73.7114 124.28C72.9194 124.868 71.9354 125.162 70.7594 125.162C69.8234 125.162 68.9834 124.952 68.2394 124.532C67.5074 124.112 66.9314 123.518 66.5114 122.75C66.0914 121.97 65.8814 121.07 65.8814 120.05C65.8814 119.03 66.0854 118.136 66.4934 117.368C66.9014 116.6 67.4714 116.012 68.2034 115.604C68.9474 115.184 69.7994 114.974 70.7594 114.974C71.6954 114.974 72.5234 115.178 73.2434 115.586C73.9634 115.994 74.5154 116.558 74.8994 117.278C75.2954 117.986 75.4934 118.79 75.4934 119.69ZM73.8014 119.348C73.8014 118.724 73.6634 118.19 73.3874 117.746C73.1114 117.29 72.7334 116.948 72.2534 116.72C71.7854 116.48 71.2634 116.36 70.6874 116.36C69.8594 116.36 69.1514 116.624 68.5634 117.152C67.9874 117.68 67.6574 118.412 67.5734 119.348H73.8014ZM79.2935 111.68V125H77.6555V111.68H79.2935ZM81.4732 120.032C81.4732 119.024 81.6772 118.142 82.0852 117.386C82.4932 116.618 83.0512 116.024 83.7592 115.604C84.4792 115.184 85.2772 114.974 86.1532 114.974C87.0172 114.974 87.7672 115.16 88.4032 115.532C89.0392 115.904 89.5132 116.372 89.8252 116.936V115.136H91.4812V125H89.8252V123.164C89.5012 123.74 89.0152 124.22 88.3672 124.604C87.7312 124.976 86.9872 125.162 86.1352 125.162C85.2592 125.162 84.4672 124.946 83.7592 124.514C83.0512 124.082 82.4932 123.476 82.0852 122.696C81.6772 121.916 81.4732 121.028 81.4732 120.032ZM89.8252 120.05C89.8252 119.306 89.6752 118.658 89.3752 118.106C89.0752 117.554 88.6672 117.134 88.1512 116.846C87.6472 116.546 87.0892 116.396 86.4772 116.396C85.8652 116.396 85.3072 116.54 84.8032 116.828C84.2992 117.116 83.8972 117.536 83.5972 118.088C83.2972 118.64 83.1472 119.288 83.1472 120.032C83.1472 120.788 83.2972 121.448 83.5972 122.012C83.8972 122.564 84.2992 122.99 84.8032 123.29C85.3072 123.578 85.8652 123.722 86.4772 123.722C87.0892 123.722 87.6472 123.578 88.1512 123.29C88.6672 122.99 89.0752 122.564 89.3752 122.012C89.6752 121.448 89.8252 120.794 89.8252 120.05ZM99.0553 114.956C100.255 114.956 101.227 115.322 101.971 116.054C102.715 116.774 103.087 117.818 103.087 119.186V125H101.467V119.42C101.467 118.436 101.221 117.686 100.729 117.17C100.237 116.642 99.5653 116.378 98.7133 116.378C97.8493 116.378 97.1593 116.648 96.6433 117.188C96.1393 117.728 95.8873 118.514 95.8873 119.546V125H94.2493V115.136H95.8873V116.54C96.2113 116.036 96.6493 115.646 97.2013 115.37C97.7653 115.094 98.3833 114.956 99.0553 114.956ZM105.151 120.05C105.151 119.03 105.355 118.142 105.763 117.386C106.171 116.618 106.735 116.024 107.455 115.604C108.187 115.184 109.021 114.974 109.957 114.974C111.169 114.974 112.165 115.268 112.945 115.856C113.737 116.444 114.259 117.26 114.511 118.304H112.747C112.579 117.704 112.249 117.23 111.757 116.882C111.277 116.534 110.677 116.36 109.957 116.36C109.021 116.36 108.265 116.684 107.689 117.332C107.113 117.968 106.825 118.874 106.825 120.05C106.825 121.238 107.113 122.156 107.689 122.804C108.265 123.452 109.021 123.776 109.957 123.776C110.677 123.776 111.277 123.608 111.757 123.272C112.237 122.936 112.567 122.456 112.747 121.832H114.511C114.247 122.84 113.719 123.65 112.927 124.262C112.135 124.862 111.145 125.162 109.957 125.162C109.021 125.162 108.187 124.952 107.455 124.532C106.735 124.112 106.171 123.518 105.763 122.75C105.355 121.982 105.151 121.082 105.151 120.05ZM125.697 119.69C125.697 120.002 125.679 120.332 125.643 120.68H117.759C117.819 121.652 118.149 122.414 118.749 122.966C119.361 123.506 120.099 123.776 120.963 123.776C121.671 123.776 122.259 123.614 122.727 123.29C123.207 122.954 123.543 122.51 123.735 121.958H125.499C125.235 122.906 124.707 123.68 123.915 124.28C123.123 124.868 122.139 125.162 120.963 125.162C120.027 125.162 119.187 124.952 118.443 124.532C117.711 124.112 117.135 123.518 116.715 122.75C116.295 121.97 116.085 121.07 116.085 120.05C116.085 119.03 116.289 118.136 116.697 117.368C117.105 116.6 117.675 116.012 118.407 115.604C119.151 115.184 120.003 114.974 120.963 114.974C121.899 114.974 122.727 115.178 123.447 115.586C124.167 115.994 124.719 116.558 125.103 117.278C125.499 117.986 125.697 118.79 125.697 119.69ZM124.005 119.348C124.005 118.724 123.867 118.19 123.591 117.746C123.315 117.29 122.937 116.948 122.457 116.72C121.989 116.48 121.467 116.36 120.891 116.36C120.063 116.36 119.355 116.624 118.767 117.152C118.191 117.68 117.861 118.412 117.777 119.348H124.005ZM136.859 113.462C138.191 113.462 139.349 113.714 140.333 114.218C141.317 114.722 142.073 115.43 142.601 116.342C143.129 117.242 143.393 118.286 143.393 119.474C143.393 120.422 143.237 121.334 142.925 122.21C142.613 123.074 142.157 123.776 141.557 124.316C140.969 124.856 140.279 125.126 139.487 125.126C138.887 125.126 138.425 124.976 138.101 124.676C137.777 124.376 137.591 123.968 137.543 123.452C137.171 123.968 136.697 124.376 136.121 124.676C135.557 124.976 134.957 125.126 134.321 125.126C133.409 125.126 132.689 124.85 132.161 124.298C131.645 123.734 131.387 122.978 131.387 122.03C131.387 121.13 131.573 120.29 131.945 119.51C132.329 118.73 132.857 118.106 133.529 117.638C134.201 117.158 134.963 116.918 135.815 116.918C136.955 116.918 137.723 117.35 138.119 118.214L138.317 117.098H139.739L138.839 122.3C138.803 122.528 138.785 122.738 138.785 122.93C138.785 123.65 139.103 124.01 139.739 124.01C140.219 124.01 140.633 123.782 140.981 123.326C141.341 122.87 141.611 122.3 141.791 121.616C141.971 120.92 142.061 120.236 142.061 119.564C142.061 117.992 141.587 116.774 140.639 115.91C139.703 115.046 138.377 114.614 136.661 114.614C135.233 114.614 133.943 114.962 132.791 115.658C131.651 116.342 130.757 117.284 130.109 118.484C129.461 119.684 129.137 121.01 129.137 122.462C129.125 124.046 129.599 125.264 130.559 126.116C131.519 126.98 132.851 127.412 134.555 127.412C135.683 127.412 136.679 127.208 137.543 126.8L137.759 127.916C136.691 128.36 135.515 128.582 134.231 128.582C132.947 128.582 131.813 128.336 130.829 127.844C129.857 127.364 129.101 126.668 128.561 125.756C128.033 124.856 127.769 123.806 127.769 122.606C127.769 120.914 128.159 119.372 128.939 117.98C129.719 116.576 130.799 115.472 132.179 114.668C133.571 113.864 135.131 113.462 136.859 113.462ZM134.807 123.848C135.347 123.848 135.845 123.692 136.301 123.38C136.757 123.056 137.117 122.624 137.381 122.084C137.645 121.532 137.777 120.932 137.777 120.284C137.777 119.66 137.603 119.156 137.255 118.772C136.919 118.376 136.439 118.178 135.815 118.178C135.239 118.178 134.729 118.352 134.285 118.7C133.853 119.036 133.517 119.486 133.277 120.05C133.037 120.602 132.917 121.178 132.917 121.778C132.917 122.414 133.079 122.918 133.403 123.29C133.727 123.662 134.195 123.848 134.807 123.848ZM150.155 114.974C151.007 114.974 151.751 115.16 152.387 115.532C153.035 115.904 153.515 116.372 153.827 116.936V115.136H155.483V125.216C155.483 126.116 155.291 126.914 154.907 127.61C154.523 128.318 153.971 128.87 153.251 129.266C152.543 129.662 151.715 129.86 150.767 129.86C149.471 129.86 148.391 129.554 147.527 128.942C146.663 128.33 146.153 127.496 145.997 126.44H147.617C147.797 127.04 148.169 127.52 148.733 127.88C149.297 128.252 149.975 128.438 150.767 128.438C151.667 128.438 152.399 128.156 152.963 127.592C153.539 127.028 153.827 126.236 153.827 125.216V123.146C153.503 123.722 153.023 124.202 152.387 124.586C151.751 124.97 151.007 125.162 150.155 125.162C149.279 125.162 148.481 124.946 147.761 124.514C147.053 124.082 146.495 123.476 146.087 122.696C145.679 121.916 145.475 121.028 145.475 120.032C145.475 119.024 145.679 118.142 146.087 117.386C146.495 116.618 147.053 116.024 147.761 115.604C148.481 115.184 149.279 114.974 150.155 114.974ZM153.827 120.05C153.827 119.306 153.677 118.658 153.377 118.106C153.077 117.554 152.669 117.134 152.153 116.846C151.649 116.546 151.091 116.396 150.479 116.396C149.867 116.396 149.309 116.54 148.805 116.828C148.301 117.116 147.899 117.536 147.599 118.088C147.299 118.64 147.149 119.288 147.149 120.032C147.149 120.788 147.299 121.448 147.599 122.012C147.899 122.564 148.301 122.99 148.805 123.29C149.309 123.578 149.867 123.722 150.479 123.722C151.091 123.722 151.649 123.578 152.153 123.29C152.669 122.99 153.077 122.564 153.377 122.012C153.677 121.448 153.827 120.794 153.827 120.05ZM170.113 114.956C170.881 114.956 171.565 115.118 172.165 115.442C172.765 115.754 173.239 116.228 173.587 116.864C173.935 117.5 174.109 118.274 174.109 119.186V125H172.489V119.42C172.489 118.436 172.243 117.686 171.751 117.17C171.271 116.642 170.617 116.378 169.789 116.378C168.937 116.378 168.259 116.654 167.755 117.206C167.251 117.746 166.999 118.532 166.999 119.564V125H165.379V119.42C165.379 118.436 165.133 117.686 164.641 117.17C164.161 116.642 163.507 116.378 162.679 116.378C161.827 116.378 161.149 116.654 160.645 117.206C160.141 117.746 159.889 118.532 159.889 119.564V125H158.251V115.136H159.889V116.558C160.213 116.042 160.645 115.646 161.185 115.37C161.737 115.094 162.343 114.956 163.003 114.956C163.831 114.956 164.563 115.142 165.199 115.514C165.835 115.886 166.309 116.432 166.621 117.152C166.897 116.456 167.353 115.916 167.989 115.532C168.625 115.148 169.333 114.956 170.113 114.956ZM176.184 120.032C176.184 119.024 176.388 118.142 176.796 117.386C177.204 116.618 177.762 116.024 178.47 115.604C179.19 115.184 179.988 114.974 180.864 114.974C181.728 114.974 182.478 115.16 183.114 115.532C183.75 115.904 184.224 116.372 184.536 116.936V115.136H186.192V125H184.536V123.164C184.212 123.74 183.726 124.22 183.078 124.604C182.442 124.976 181.698 125.162 180.846 125.162C179.97 125.162 179.178 124.946 178.47 124.514C177.762 124.082 177.204 123.476 176.796 122.696C176.388 121.916 176.184 121.028 176.184 120.032ZM184.536 120.05C184.536 119.306 184.386 118.658 184.086 118.106C183.786 117.554 183.378 117.134 182.862 116.846C182.358 116.546 181.8 116.396 181.188 116.396C180.576 116.396 180.018 116.54 179.514 116.828C179.01 117.116 178.608 117.536 178.308 118.088C178.008 118.64 177.858 119.288 177.858 120.032C177.858 120.788 178.008 121.448 178.308 122.012C178.608 122.564 179.01 122.99 179.514 123.29C180.018 123.578 180.576 123.722 181.188 123.722C181.8 123.722 182.358 123.578 182.862 123.29C183.378 122.99 183.786 122.564 184.086 122.012C184.386 121.448 184.536 120.794 184.536 120.05ZM189.806 113.534C189.494 113.534 189.23 113.426 189.014 113.21C188.798 112.994 188.69 112.73 188.69 112.418C188.69 112.106 188.798 111.842 189.014 111.626C189.23 111.41 189.494 111.302 189.806 111.302C190.106 111.302 190.358 111.41 190.562 111.626C190.778 111.842 190.886 112.106 190.886 112.418C190.886 112.73 190.778 112.994 190.562 113.21C190.358 113.426 190.106 113.534 189.806 113.534ZM190.598 115.136V125H188.96V115.136H190.598ZM195.028 111.68V125H193.39V111.68H195.028ZM198.342 125.108C198.03 125.108 197.766 125 197.55 124.784C197.334 124.568 197.226 124.304 197.226 123.992C197.226 123.68 197.334 123.416 197.55 123.2C197.766 122.984 198.03 122.876 198.342 122.876C198.642 122.876 198.894 122.984 199.098 123.2C199.314 123.416 199.422 123.68 199.422 123.992C199.422 124.304 199.314 124.568 199.098 124.784C198.894 125 198.642 125.108 198.342 125.108ZM200.987 120.05C200.987 119.03 201.191 118.142 201.599 117.386C202.007 116.618 202.571 116.024 203.291 115.604C204.023 115.184 204.857 114.974 205.793 114.974C207.005 114.974 208.001 115.268 208.781 115.856C209.573 116.444 210.095 117.26 210.347 118.304H208.583C208.415 117.704 208.085 117.23 207.593 116.882C207.113 116.534 206.513 116.36 205.793 116.36C204.857 116.36 204.101 116.684 203.525 117.332C202.949 117.968 202.661 118.874 202.661 120.05C202.661 121.238 202.949 122.156 203.525 122.804C204.101 123.452 204.857 123.776 205.793 123.776C206.513 123.776 207.113 123.608 207.593 123.272C208.073 122.936 208.403 122.456 208.583 121.832H210.347C210.083 122.84 209.555 123.65 208.763 124.262C207.971 124.862 206.981 125.162 205.793 125.162C204.857 125.162 204.023 124.952 203.291 124.532C202.571 124.112 202.007 123.518 201.599 122.75C201.191 121.982 200.987 121.082 200.987 120.05ZM216.834 125.162C215.91 125.162 215.07 124.952 214.314 124.532C213.57 124.112 212.982 123.518 212.55 122.75C212.13 121.97 211.92 121.07 211.92 120.05C211.92 119.042 212.136 118.154 212.568 117.386C213.012 116.606 213.612 116.012 214.368 115.604C215.124 115.184 215.97 114.974 216.906 114.974C217.842 114.974 218.688 115.184 219.444 115.604C220.2 116.012 220.794 116.6 221.226 117.368C221.67 118.136 221.892 119.03 221.892 120.05C221.892 121.07 221.664 121.97 221.208 122.75C220.764 123.518 220.158 124.112 219.39 124.532C218.622 124.952 217.77 125.162 216.834 125.162ZM216.834 123.722C217.422 123.722 217.974 123.584 218.49 123.308C219.006 123.032 219.42 122.618 219.732 122.066C220.056 121.514 220.218 120.842 220.218 120.05C220.218 119.258 220.062 118.586 219.75 118.034C219.438 117.482 219.03 117.074 218.526 116.81C218.022 116.534 217.476 116.396 216.888 116.396C216.288 116.396 215.736 116.534 215.232 116.81C214.74 117.074 214.344 117.482 214.044 118.034C213.744 118.586 213.594 119.258 213.594 120.05C213.594 120.854 213.738 121.532 214.026 122.084C214.326 122.636 214.722 123.05 215.214 123.326C215.706 123.59 216.246 123.722 216.834 123.722ZM235.908 114.956C236.676 114.956 237.36 115.118 237.96 115.442C238.56 115.754 239.034 116.228 239.382 116.864C239.73 117.5 239.904 118.274 239.904 119.186V125H238.284V119.42C238.284 118.436 238.038 117.686 237.546 117.17C237.066 116.642 236.412 116.378 235.584 116.378C234.732 116.378 234.054 116.654 233.55 117.206C233.046 117.746 232.794 118.532 232.794 119.564V125H231.174V119.42C231.174 118.436 230.928 117.686 230.436 117.17C229.956 116.642 229.302 116.378 228.474 116.378C227.622 116.378 226.944 116.654 226.44 117.206C225.936 117.746 225.684 118.532 225.684 119.564V125H224.046V115.136H225.684V116.558C226.008 116.042 226.44 115.646 226.98 115.37C227.532 115.094 228.138 114.956 228.798 114.956C229.626 114.956 230.358 115.142 230.994 115.514C231.63 115.886 232.104 116.432 232.416 117.152C232.692 116.456 233.148 115.916 233.784 115.532C234.42 115.148 235.128 114.956 235.908 114.956Z" fill="#252525"/>
<path d="M12 13.5C11.2583 13.5 10.5333 13.2801 9.91661 12.868C9.29993 12.456 8.81928 11.8703 8.53545 11.1851C8.25162 10.4998 8.17736 9.74584 8.32206 9.01841C8.46675 8.29098 8.8239 7.6228 9.34835 7.09835C9.8728 6.5739 10.541 6.21675 11.2684 6.07206C11.9958 5.92736 12.7498 6.00162 13.4351 6.28545C14.1203 6.56928 14.706 7.04993 15.118 7.66661C15.5301 8.2833 15.75 9.00832 15.75 9.75C15.7488 10.7442 15.3533 11.6973 14.6503 12.4003C13.9473 13.1033 12.9942 13.4988 12 13.5ZM12 7.5C11.555 7.5 11.12 7.63196 10.75 7.8792C10.38 8.12643 10.0916 8.47783 9.92127 8.88896C9.75098 9.3001 9.70642 9.7525 9.79323 10.189C9.88005 10.6254 10.0943 11.0263 10.409 11.341C10.7237 11.6557 11.1246 11.87 11.561 11.9568C11.9975 12.0436 12.4499 11.999 12.861 11.8287C13.2722 11.6584 13.6236 11.37 13.8708 11C14.118 10.63 14.25 10.195 14.25 9.75C14.2494 9.15345 14.0122 8.5815 13.5903 8.15967C13.1685 7.73784 12.5966 7.5006 12 7.5Z" fill="#252525"/>
<path d="M12 22.5L5.67301 15.0382C5.58509 14.9262 5.49809 14.8135 5.41201 14.7C4.33124 13.2763 3.74739 11.5374 3.75001 9.75C3.75001 7.56196 4.6192 5.46354 6.16638 3.91637C7.71355 2.36919 9.81197 1.5 12 1.5C14.188 1.5 16.2865 2.36919 17.8336 3.91637C19.3808 5.46354 20.25 7.56196 20.25 9.75C20.2526 11.5366 19.669 13.2747 18.5888 14.6978L18.588 14.7C18.588 14.7 18.363 14.9955 18.3293 15.0353L12 22.5ZM6.60901 13.7963C6.61051 13.7963 6.78451 14.0272 6.82426 14.0767L12 20.181L17.1825 14.0685C17.2155 14.0272 17.391 13.7948 17.3918 13.794C18.2746 12.6308 18.7517 11.2103 18.75 9.75C18.75 7.95979 18.0388 6.2429 16.773 4.97703C15.5071 3.71116 13.7902 3 12 3C10.2098 3 8.49291 3.71116 7.22704 4.97703C5.96117 6.2429 5.25001 7.95979 5.25001 9.75C5.24844 11.2112 5.72609 12.6326 6.60976 13.7963H6.60901Z" fill="#252525"/>
<path d="M18 61.75H16.5C16.4994 61.1534 16.2622 60.5815 15.8403 60.1597C15.4185 59.7378 14.8466 59.5006 14.25 59.5V58C15.2442 58.0012 16.1973 58.3967 16.9003 59.0997C17.6033 59.8027 17.9988 60.7558 18 61.75Z" fill="#252525"/>
<path d="M21 61.75H19.5C19.4984 60.3581 18.9448 59.0237 17.9606 58.0394C16.9764 57.0552 15.6419 56.5016 14.25 56.5V55C16.0396 55.002 17.7554 55.7138 19.0208 56.9792C20.2862 58.2447 20.998 59.9604 21 61.75ZM19.5 73.75H19.3725C4.63503 72.9025 2.54253 60.4675 2.25003 56.6725C2.20431 56.0776 2.39679 55.4888 2.78512 55.0358C3.17346 54.5828 3.72584 54.3025 4.32078 54.2568C4.38028 54.2523 4.44003 54.25 4.50003 54.25H8.45253C8.75294 54.2497 9.04653 54.3396 9.29525 54.5081C9.54397 54.6766 9.73637 54.9159 9.84753 55.195L10.9875 58C11.0973 58.2727 11.1245 58.5716 11.0659 58.8596C11.0072 59.1476 10.8652 59.412 10.6575 59.62L9.06003 61.2325C9.30855 62.651 9.98732 63.9587 11.0043 64.9784C12.0212 65.998 13.3272 66.6802 14.745 66.9325L16.3725 65.32C16.5836 65.1146 16.8506 64.9759 17.14 64.9213C17.4294 64.8666 17.7285 64.8983 18 65.0125L20.8275 66.145C21.1024 66.2597 21.3369 66.4536 21.5012 66.702C21.6655 66.9504 21.7521 67.2422 21.75 67.54V71.5C21.75 72.0967 21.513 72.669 21.091 73.091C20.6691 73.5129 20.0968 73.75 19.5 73.75ZM4.50003 55.75C4.40154 55.7497 4.30395 55.7688 4.21284 55.8062C4.12173 55.8436 4.03889 55.8986 3.96904 55.9681C3.89918 56.0375 3.84369 56.12 3.80573 56.2109C3.76776 56.3018 3.74807 56.3993 3.74778 56.4978C3.74778 56.5188 3.74853 56.5395 3.75003 56.56C4.09503 61 6.30753 71.5 19.455 72.25C19.6535 72.2619 19.8486 72.1945 19.9974 72.0625C20.1462 71.9306 20.2366 71.745 20.2485 71.5465L20.25 71.5V67.54L17.4225 66.4075L15.27 68.545L14.91 68.5C8.38503 67.6825 7.50003 61.1575 7.50003 61.09L7.45503 60.73L9.58503 58.5775L8.46003 55.75H4.50003Z" fill="#252525"/>
<g clip-path="url(#clip0_0_1)">
<path d="M21.3333 113H2.66659C2.31296 113 1.97382 113.14 1.72378 113.391C1.47373 113.641 1.33325 113.98 1.33325 114.333V127.667C1.33325 128.02 1.47373 128.359 1.72378 128.609C1.97382 128.86 2.31296 129 2.66659 129H21.3333C21.6869 129 22.026 128.86 22.2761 128.609C22.5261 128.359 22.6666 128.02 22.6666 127.667V114.333C22.6666 113.98 22.5261 113.641 22.2761 113.391C22.026 113.14 21.6869 113 21.3333 113ZM20.3066 127.667H3.77325L8.43992 122.84L7.47992 121.913L2.66659 126.893V115.347L10.9533 123.593C11.2031 123.842 11.541 123.981 11.8933 123.981C12.2455 123.981 12.5834 123.842 12.8333 123.593L21.3333 115.14V126.807L16.4266 121.9L15.4866 122.84L20.3066 127.667ZM3.53992 114.333H20.2533L11.8933 122.647L3.53992 114.333Z" fill="#252525"/>
</g>
<defs>
<clipPath id="clip0_0_1">
<rect width="24" height="24" fill="white" transform="translate(0 109)"/>
</clipPath>
</defs>
</svg>
