<svg width="138" height="30" viewBox="0 0 138 30" fill="none" xmlns="http://www.w3.org/2000/svg">
<path d="M14.9999 11.0946C12.8495 11.0946 11.0946 12.8495 11.0946 14.9999C11.0946 17.1503 12.8495 18.9052 14.9999 18.9052C17.1503 18.9052 18.9052 17.1503 18.9052 14.9999C18.9052 12.8495 17.1503 11.0946 14.9999 11.0946ZM26.7128 14.9999C26.7128 13.3827 26.7275 11.7802 26.6366 10.1659C26.5458 8.29091 26.1181 6.62685 24.747 5.25575C23.373 3.88173 21.7118 3.45693 19.8368 3.36611C18.2196 3.27529 16.6171 3.28993 15.0028 3.28993C13.3856 3.28993 11.7831 3.27529 10.1688 3.36611C8.29384 3.45693 6.62978 3.88466 5.25869 5.25575C3.88466 6.62978 3.45986 8.29091 3.36904 10.1659C3.27822 11.7831 3.29286 13.3856 3.29286 14.9999C3.29286 16.6141 3.27822 18.2196 3.36904 19.8339C3.45986 21.7089 3.88759 23.3729 5.25869 24.744C6.63271 26.118 8.29384 26.5429 10.1688 26.6337C11.786 26.7245 13.3886 26.7098 15.0028 26.7098C16.62 26.7098 18.2226 26.7245 19.8368 26.6337C21.7118 26.5429 23.3759 26.1151 24.747 24.744C26.121 23.37 26.5458 21.7089 26.6366 19.8339C26.7304 18.2196 26.7128 16.6171 26.7128 14.9999ZM14.9999 21.0087C11.6747 21.0087 8.99111 18.3251 8.99111 14.9999C8.99111 11.6747 11.6747 8.9911 14.9999 8.9911C18.3251 8.9911 21.0087 11.6747 21.0087 14.9999C21.0087 18.3251 18.3251 21.0087 14.9999 21.0087ZM21.2548 10.1483C20.4784 10.1483 19.8515 9.52138 19.8515 8.74501C19.8515 7.96864 20.4784 7.34169 21.2548 7.34169C22.0312 7.34169 22.6581 7.96864 22.6581 8.74501C22.6583 8.92936 22.6222 9.11195 22.5518 9.28231C22.4813 9.45267 22.378 9.60747 22.2476 9.73782C22.1172 9.86818 21.9625 9.97154 21.7921 10.042C21.6217 10.1124 21.4391 10.1486 21.2548 10.1483Z" fill="#252525"/>
<g clip-path="url(#clip0_35_272)">
<path d="M81 2.84287C80.3317 4.06666 79.5117 5.10989 78.5402 5.97254C78.5498 6.2039 78.5546 6.4654 78.5546 6.75703C78.5546 8.3774 78.3627 9.99973 77.9789 11.624C77.5951 13.2483 77.0088 14.8031 76.2201 16.2882C75.4314 17.7734 74.4918 19.0892 73.4015 20.2355C72.3112 21.3818 71.0006 22.2958 69.4697 22.9775C67.9388 23.6592 66.2981 24 64.5476 24C61.8157 24 59.2998 23.0921 57 21.2762C57.4082 21.3321 57.7997 21.3601 58.1744 21.3601C60.4568 21.3601 62.4953 20.4947 64.2899 18.7638C63.2258 18.7398 62.2728 18.3365 61.4308 17.554C60.5889 16.7715 60.0096 15.7716 59.6927 14.5543C60.0059 14.6277 60.315 14.6645 60.62 14.6645C61.0591 14.6645 61.4911 14.594 61.9161 14.453C60.7805 14.173 59.8384 13.4766 59.0898 12.364C58.3412 11.2514 57.9669 9.9672 57.9669 8.51146V8.43643C58.664 8.91157 59.4075 9.1643 60.1975 9.19464C59.5248 8.64251 58.9914 7.92252 58.5973 7.03466C58.2033 6.14681 58.0063 5.18599 58.0063 4.15222C58.0063 3.06193 58.2282 2.04666 58.6721 1.10642C59.9071 2.97214 61.4035 4.46327 63.1614 5.57983C64.9194 6.69641 66.8053 7.31652 68.8193 7.44017C68.7334 6.99948 68.6903 6.5396 68.6902 6.06053C68.6902 4.38779 69.171 2.95952 70.1327 1.77571C71.0945 0.591904 72.2547 0 73.6135 0C75.0361 0 76.2344 0.637688 77.2083 1.91306C78.3211 1.64172 79.363 1.15093 80.3341 0.440688C79.96 1.89013 79.2391 3.00827 78.1714 3.79512C79.1527 3.65157 80.0955 3.33415 81 2.84287H81Z" fill="#252525"/>
</g>
<path d="M124.746 26.2462V16.0012H128.203L128.716 11.99H124.746V9.43497C124.746 8.27747 125.069 7.48497 126.73 7.48497H128.835V3.90872C127.811 3.79896 126.781 3.74596 125.751 3.74997C122.696 3.74997 120.599 5.61497 120.599 9.03872V11.9825H117.165V15.9937H120.606V26.2462H124.746Z" fill="#252525"/>
<defs>
<clipPath id="clip0_35_272">
<rect width="24" height="24" fill="white" transform="translate(57)"/>
</clipPath>
</defs>
</svg>
